<svg xmlns="http://www.w3.org/2000/svg" viewBox="0 0 286.75 271.82"><defs><style>.cls-1{fill:#03a8f3;}.cls-2{fill:#ade900;}.cls-3{fill:#0287d0;}</style></defs><title>Recurso 12</title><g id="Capa_2" data-name="Capa 2"><g id="Capa_1-2" data-name="Capa 1"><path class="cls-1" d="M110.46,86.74a24.91,24.91,0,0,0,2.33-10.5c.2-16.91.39-33.64.59-50.36,0-3.89.19-4.08,4.27-4.08,3.12.19,6.23,0,9.34,0,1.75,0,2.33.58,2.33,2.33,0,20-.39,39.86-.78,59.89a9.72,9.72,0,0,1-1,4.08c-13.42,27.81-30.72,63.39-44.33,91.2L72.15,164.52Z"/><path class="cls-1" d="M154.21,24.72c0-2.14.78-3.12,2.92-2.92a58.91,58.91,0,0,0,10.11-.2c2.33-.19,2.91.39,2.91,2.73.39,18.66.39,37.33,1.17,56a10.8,10.8,0,0,0,1.36,5.44c10.89,22.75,22,45.5,32.86,68.25,1.56,3.11,1.36,3.7-1.16,6-3.11,3.11-6.23,6.22-9.14,9.72L162,101.33a58.61,58.61,0,0,1-7-28Z"/><path class="cls-1" d="M180.46,0c6.22,0,9.92,4.28,9.14,10.11-.58,4.47-4.28,7.39-9.53,7.39l-76.61-.19a8.61,8.61,0,0,1-8.17-4.67,8.91,8.91,0,0,1,.78-9.53A6.68,6.68,0,0,1,102.29,0Z"/><path class="cls-2" d="M13.24,191.35C54.46,231.41,102.88,254,161,251.63c.38,1,0,1-.2,1.17-13.61,8-28,14.39-43.55,17.5a71.24,71.24,0,0,1-57.95-13.22c-14-10.5-24.5-24.31-33.44-39.28a170.33,170.33,0,0,1-12.06-24.7Z"/><path class="cls-1" d="M130.1,226.35c6.8-.19,19.83,0,26.83,0,10.89.2,22,.2,33.06.2a6.75,6.75,0,0,1,4.86,1.94L206.71,239c1.36,2.73.58,3.89-2.53,3.89l-53.86-.58Z"/><path class="cls-1" d="M256.68,126.8a297.16,297.16,0,0,1,10.11,48.8c.59,4.87.78,9.73,1,14.59,0,2.91-.59,3.69-3.5,3.5a98.9,98.9,0,0,0-20,1,61.88,61.88,0,0,0-22,7A35.47,35.47,0,0,0,205,226.74c-.39,1.95-.58,3.89-1,5.84a42.08,42.08,0,0,1-9.34-10.11c-5.25-7.39-8.55-15.17-7.77-24.5a45.8,45.8,0,0,1,7-19.84A88.84,88.84,0,0,1,213.52,156,247.25,247.25,0,0,1,256.68,126.8Z"/><path class="cls-3" d="M263.68,199.33a130,130,0,0,1,21.39,1.36c1.36.19,1.95.78,1.56,1.94-6.23,15.36-12.45,30.53-22.95,43.56a50.13,50.13,0,0,1-7.78,8,25.13,25.13,0,0,1-28.19,4.08,46.23,46.23,0,0,1-8.56-4.86,17.74,17.74,0,0,1-7.77-11.86c-1-5.83-1.95-11.86-.59-17.89A25.64,25.64,0,0,1,225,205.94a61.62,61.62,0,0,1,21.19-6A129.07,129.07,0,0,1,263.68,199.33Z"/><path class="cls-2" d="M72.93,164.91c3.31,5.64,19.64,24.89,24.5,30.33a328.78,328.78,0,0,0,33.06,31.7c7,5.64,14.19,11.28,21.19,16.91,1.56,1.37,3.31,2.73,4.86,4.09l5.25,4.08L148,250.47c-4.47-.59-9.14-1.17-13.61-2.14s-8.95-1.75-13.42-2.73a194.83,194.83,0,0,1-45.31-15.55C41.24,212.94,18.88,185.72,8,149a196.39,196.39,0,0,1-6.81-35.39,223.6,223.6,0,0,1-.78-36,324.93,324.93,0,0,1,10.5-71c0-.19.2-.19.2-.39,1,4.86,1.75,9.53,2.72,14.2s1.95,9.33,3.11,14c9.72,41.61,24.89,81.08,47.45,117.64,2.72,4.47,5.64,8.75,8.55,12.83"/></g></g></svg>